<svg viewBox="0 0 28 28" xmlns="http://www.w3.org/2000/svg" xmlns:xlink="http://www.w3.org/1999/xlink" width="28.000000" height="28.000000" fill="none" customFrame="#000000">
	<mask id="mask_0" width="20.000000" height="18.000000" x="0.000000" y="0.000000" maskUnits="objectBoundingBox">
		<g filter="url(#pixso_custom_mask_type_outline)">
			<path id="合并" d="M4.04985 2.44575C4.11482 2.73116 4.11862 3.03848 3.97227 3.29197L2.05546 6.61198C1.91243 6.85972 1.65272 7.00923 1.38069 7.09773C0.579259 7.35847 0 8.11159 0 9C0 9.92587 0.629138 10.7048 1.48323 10.9326C1.78167 11.0122 2.07029 11.1638 2.22472 11.4313L4.02099 14.5426C4.17879 14.8159 4.16182 15.1495 4.07569 15.4531C4.02639 15.6269 4 15.8104 4 16C4 17.1046 4.89543 18 6 18C6.62114 18 7.17615 17.7168 7.54298 17.2726C7.7668 17.0015 8.07123 16.7785 8.42276 16.7785L11.5772 16.7785C11.9288 16.7785 12.2332 17.0015 12.457 17.2726C12.8238 17.7168 13.3789 18 14 18C15.1046 18 16 17.1046 16 16C16 14.8954 15.1046 14 14 14C13.7235 14 13.4434 13.8922 13.3011 13.6551L12.4897 12.3028C12.4497 12.2361 12.4665 12.1502 12.5268 12.101C12.6317 12.0155 12.7322 11.9246 12.8284 11.8284C12.9246 11.7322 13.0155 11.6317 13.101 11.5268C13.177 11.4337 13.2487 11.3371 13.3162 11.2372C13.3968 11.1179 13.4705 10.9951 13.5374 10.8686C13.5911 10.7672 13.6404 10.6634 13.6852 10.5573C13.7363 10.4365 13.7813 10.3138 13.82 10.1891C13.8592 10.0631 13.8921 9.93503 13.9187 9.80504C13.937 9.71586 13.9522 9.62627 13.9643 9.53627C13.9881 9.35911 14 9.18036 14 9C14 8.81965 13.9881 8.64091 13.9643 8.46376C13.9522 8.37375 13.937 8.28415 13.9187 8.19496C13.8921 8.06494 13.8592 7.93688 13.82 7.81078C13.7812 7.68617 13.7363 7.56348 13.6852 7.4427C13.6404 7.33659 13.5911 7.23281 13.5374 7.13135C13.4705 7.0049 13.3968 6.88206 13.3162 6.76284C13.2487 6.66285 13.1769 6.56629 13.101 6.47315C13.0155 6.36828 12.9246 6.26775 12.8284 6.17157C12.7323 6.0754 12.6317 5.98456 12.5269 5.89904C12.4337 5.82307 12.3372 5.75131 12.2372 5.68375C12.1179 5.60317 11.995 5.52942 11.8685 5.4625C11.7671 5.40887 11.6633 5.35962 11.5573 5.31476C11.4365 5.26368 11.3138 5.21876 11.1892 5.17999C11.0631 5.14077 10.9351 5.10786 10.805 5.08125C10.7159 5.063 10.6263 5.04783 10.5363 5.03573C10.3591 5.01191 10.1804 5 10 5C9.81965 5 9.64091 5.01191 9.46376 5.03572L9.46266 5.03587C9.37301 5.04795 9.28378 5.06307 9.19496 5.08125C9.06496 5.10785 8.93692 5.14076 8.81084 5.17998C8.68621 5.21874 8.5635 5.26367 8.4427 5.31476C8.33664 5.35962 8.2329 5.40888 8.13149 5.46252C8.00499 5.52943 7.88211 5.60317 7.76284 5.68375C7.66284 5.75131 7.56626 5.82307 7.47312 5.89904C7.36826 5.98456 7.26774 6.0754 7.17157 6.17157C7.0754 6.26775 6.98455 6.36827 6.89903 6.47313C6.82307 6.56627 6.75131 6.66284 6.68375 6.76284C6.60316 6.88213 6.5294 7.00503 6.46248 7.13155C6.40885 7.23295 6.35961 7.33666 6.31476 7.4427C6.26368 7.56348 6.21875 7.68618 6.17999 7.81079C6.14077 7.93689 6.10785 8.06494 6.08125 8.19496C6.063 8.28414 6.04783 8.37373 6.03573 8.46373C6.01191 8.64089 6 8.81964 6 9C6 9.18035 6.01191 9.3591 6.03572 9.53625C6.04782 9.62626 6.063 9.71586 6.08125 9.80504C6.10785 9.93505 6.14077 10.0631 6.17999 10.1892C6.21875 10.3138 6.26368 10.4365 6.31476 10.5573C6.35963 10.6634 6.40888 10.7671 6.46253 10.8685C6.52944 10.995 6.60318 11.1179 6.68375 11.2372C6.75131 11.3372 6.82307 11.4337 6.89903 11.5269C6.98455 11.6317 7.0754 11.7323 7.17157 11.8284C7.26777 11.9246 7.36832 12.0155 7.47321 12.101C7.56633 12.177 7.66287 12.2487 7.76284 12.3162C7.88208 12.3968 8.00494 12.4705 8.13141 12.5374C8.23285 12.5911 8.33661 12.6404 8.4427 12.6852C8.56352 12.7363 8.68626 12.7813 8.81091 12.82C8.93696 12.8593 9.06498 12.8922 9.19496 12.9187C9.28414 12.937 9.37373 12.9522 9.46373 12.9643C9.64089 12.9881 9.81964 13 10 13C10.1803 13 10.3591 12.9881 10.5362 12.9643C10.6263 12.9522 10.7159 12.937 10.805 12.9187C10.9351 12.8921 11.0631 12.8592 11.1892 12.82C11.2358 12.8055 11.2865 12.8241 11.3115 12.8659L12.2381 14.4102C12.3597 14.613 12.3349 14.8668 12.2256 15.0764C12.1076 15.3027 11.8914 15.4785 11.6362 15.4785L8.60184 15.4785C8.20623 15.4785 7.87538 15.199 7.65207 14.8724C7.29186 14.3457 6.6863 14 6 14C5.57878 14 5.12985 13.8632 4.91924 13.4984L3.61178 11.2338C3.39385 10.8563 3.50886 10.3831 3.72856 10.0067C3.90113 9.71099 4 9.36704 4 9C4 8.60568 3.88588 8.23801 3.68887 7.92822C3.44374 7.54275 3.30675 7.04468 3.53516 6.64906L4.77074 4.50898C4.99638 4.11816 5.48777 3.98553 5.93884 3.99908C5.95915 3.99969 5.97954 4 6 4C6.74404 4 7.39319 3.59371 7.73768 2.99088C7.95488 2.61081 8.30818 2.27163 8.74593 2.27163L11.2541 2.27163C11.6918 2.27163 12.0451 2.61081 12.2623 2.99088C12.6068 3.59371 13.256 4 14 4C14.3716 4 14.7606 4.13035 14.9464 4.45221L16.3338 6.85524C16.5441 7.21947 16.4442 7.67469 16.2429 8.04394C16.088 8.32797 16 8.65371 16 9C16 10.1046 16.8954 11 18 11C19.1046 11 20 10.1046 20 9C20 7.89543 19.1046 7 18 7C17.9504 7 17.9039 6.97472 17.8791 6.9318L15.9394 3.57213C15.7735 3.2847 15.8009 2.93237 15.9031 2.61662C15.966 2.42239 16 2.21517 16 2C16 0.89543 15.1046 0 14 0C13.4492 0 12.9505 0.222623 12.5888 0.582791C12.3711 0.799557 12.0964 0.971629 11.7892 0.971629L8.21084 0.971629C7.90364 0.971629 7.62889 0.799556 7.41121 0.582791C7.04952 0.222623 6.55076 0 6 0C4.89543 0 4 0.89543 4 2C4 2.15322 4.01723 2.30241 4.04985 2.44575ZM9.55456 7.12411C9.45103 7.1486 9.34958 7.18186 9.25019 7.22389C9.1459 7.268 9.04696 7.32038 8.95337 7.38102C8.84019 7.45436 8.73484 7.5398 8.63732 7.63732C8.53979 7.73484 8.45436 7.84019 8.38102 7.95338C8.32038 8.04696 8.268 8.1459 8.22389 8.25019C8.18186 8.34957 8.1486 8.45103 8.12411 8.55455C8.08995 8.699 8.07287 8.84748 8.07287 9C8.07287 9.15252 8.08995 9.30099 8.12411 9.44543C8.1486 9.54897 8.18186 9.65042 8.22389 9.74981C8.268 9.8541 8.32038 9.95304 8.38102 10.0466C8.45437 10.1598 8.5398 10.2652 8.63732 10.3627C8.73484 10.4602 8.84019 10.5456 8.95338 10.619C9.04696 10.6796 9.1459 10.732 9.25019 10.7761C9.34958 10.8181 9.45103 10.8514 9.55457 10.8759C9.69901 10.91 9.84748 10.9271 10 10.9271C10.1525 10.9271 10.301 10.91 10.4454 10.8759C10.549 10.8514 10.6504 10.8181 10.7498 10.7761C10.8541 10.732 10.953 10.6796 11.0466 10.619C11.1598 10.5456 11.2652 10.4602 11.3627 10.3627C11.4602 10.2652 11.5456 10.1598 11.619 10.0466C11.6796 9.95304 11.732 9.8541 11.7761 9.74981C11.8181 9.65042 11.8514 9.54897 11.8759 9.44543C11.91 9.30099 11.9271 9.15252 11.9271 9C11.9271 8.84748 11.91 8.699 11.8759 8.55457C11.8514 8.45103 11.8181 8.34958 11.7761 8.25019C11.732 8.1459 11.6796 8.04696 11.619 7.95337C11.5456 7.84019 11.4602 7.73484 11.3627 7.63732C11.2652 7.53979 11.1598 7.45436 11.0466 7.38101C10.953 7.32038 10.8541 7.268 10.7498 7.22389C10.6504 7.18186 10.549 7.1486 10.4454 7.12411C10.301 7.08995 10.1525 7.07287 10 7.07287C9.84748 7.07287 9.699 7.08995 9.55456 7.12411Z" fill="url(#paint_linear_1)" fill-opacity="0" fill-rule="evenodd" transform="matrix(0,1,1,0,5,4)" />
			<path id="合并" d="M4.04985 2.44575C4.11482 2.73116 4.11862 3.03848 3.97227 3.29197L2.05546 6.61198C1.91243 6.85972 1.65272 7.00923 1.38069 7.09773C0.579259 7.35847 0 8.11159 0 9C0 9.92587 0.629138 10.7048 1.48323 10.9326C1.78167 11.0122 2.07029 11.1638 2.22472 11.4313L4.02099 14.5426C4.17879 14.8159 4.16182 15.1495 4.07569 15.4531C4.02639 15.6269 4 15.8104 4 16C4 17.1046 4.89543 18 6 18C6.62114 18 7.17615 17.7168 7.54298 17.2726C7.7668 17.0015 8.07123 16.7785 8.42276 16.7785L11.5772 16.7785C11.9288 16.7785 12.2332 17.0015 12.457 17.2726C12.8238 17.7168 13.3789 18 14 18C15.1046 18 16 17.1046 16 16C16 14.8954 15.1046 14 14 14C13.7235 14 13.4434 13.8922 13.3011 13.6551L12.4897 12.3028C12.4497 12.2361 12.4665 12.1502 12.5268 12.101C12.6317 12.0155 12.7322 11.9246 12.8284 11.8284C12.9246 11.7322 13.0155 11.6317 13.101 11.5268C13.177 11.4337 13.2487 11.3371 13.3162 11.2372C13.3968 11.1179 13.4705 10.9951 13.5374 10.8686C13.5911 10.7672 13.6404 10.6634 13.6852 10.5573C13.7363 10.4365 13.7813 10.3138 13.82 10.1891C13.8592 10.0631 13.8921 9.93503 13.9187 9.80504C13.937 9.71586 13.9522 9.62627 13.9643 9.53627C13.9881 9.35911 14 9.18036 14 9C14 8.81965 13.9881 8.64091 13.9643 8.46376C13.9522 8.37375 13.937 8.28415 13.9187 8.19496C13.8921 8.06494 13.8592 7.93688 13.82 7.81078C13.7812 7.68617 13.7363 7.56348 13.6852 7.4427C13.6404 7.33659 13.5911 7.23281 13.5374 7.13135C13.4705 7.0049 13.3968 6.88206 13.3162 6.76284C13.2487 6.66285 13.1769 6.56629 13.101 6.47315C13.0155 6.36828 12.9246 6.26775 12.8284 6.17157C12.7323 6.0754 12.6317 5.98456 12.5269 5.89904C12.4337 5.82307 12.3372 5.75131 12.2372 5.68375C12.1179 5.60317 11.995 5.52942 11.8685 5.4625C11.7671 5.40887 11.6633 5.35962 11.5573 5.31476C11.4365 5.26368 11.3138 5.21876 11.1892 5.17999C11.0631 5.14077 10.9351 5.10786 10.805 5.08125C10.7159 5.063 10.6263 5.04783 10.5363 5.03573C10.3591 5.01191 10.1804 5 10 5C9.81965 5 9.64091 5.01191 9.46376 5.03572L9.46266 5.03587C9.37301 5.04795 9.28378 5.06307 9.19496 5.08125C9.06496 5.10785 8.93692 5.14076 8.81084 5.17998C8.68621 5.21874 8.5635 5.26367 8.4427 5.31476C8.33664 5.35962 8.2329 5.40888 8.13149 5.46252C8.00499 5.52943 7.88211 5.60317 7.76284 5.68375C7.66284 5.75131 7.56626 5.82307 7.47312 5.89904C7.36826 5.98456 7.26774 6.0754 7.17157 6.17157C7.0754 6.26775 6.98455 6.36827 6.89903 6.47313C6.82307 6.56627 6.75131 6.66284 6.68375 6.76284C6.60316 6.88213 6.5294 7.00503 6.46248 7.13155C6.40885 7.23295 6.35961 7.33666 6.31476 7.4427C6.26368 7.56348 6.21875 7.68618 6.17999 7.81079C6.14077 7.93689 6.10785 8.06494 6.08125 8.19496C6.063 8.28414 6.04783 8.37373 6.03573 8.46373C6.01191 8.64089 6 8.81964 6 9C6 9.18035 6.01191 9.3591 6.03572 9.53625C6.04782 9.62626 6.063 9.71586 6.08125 9.80504C6.10785 9.93505 6.14077 10.0631 6.17999 10.1892C6.21875 10.3138 6.26368 10.4365 6.31476 10.5573C6.35963 10.6634 6.40888 10.7671 6.46253 10.8685C6.52944 10.995 6.60318 11.1179 6.68375 11.2372C6.75131 11.3372 6.82307 11.4337 6.89903 11.5269C6.98455 11.6317 7.0754 11.7323 7.17157 11.8284C7.26777 11.9246 7.36832 12.0155 7.47321 12.101C7.56633 12.177 7.66287 12.2487 7.76284 12.3162C7.88208 12.3968 8.00494 12.4705 8.13141 12.5374C8.23285 12.5911 8.33661 12.6404 8.4427 12.6852C8.56352 12.7363 8.68626 12.7813 8.81091 12.82C8.93696 12.8593 9.06498 12.8922 9.19496 12.9187C9.28414 12.937 9.37373 12.9522 9.46373 12.9643C9.64089 12.9881 9.81964 13 10 13C10.1803 13 10.3591 12.9881 10.5362 12.9643C10.6263 12.9522 10.7159 12.937 10.805 12.9187C10.9351 12.8921 11.0631 12.8592 11.1892 12.82C11.2358 12.8055 11.2865 12.8241 11.3115 12.8659L12.2381 14.4102C12.3597 14.613 12.3349 14.8668 12.2256 15.0764C12.1076 15.3027 11.8914 15.4785 11.6362 15.4785L8.60184 15.4785C8.20623 15.4785 7.87538 15.199 7.65207 14.8724C7.29186 14.3457 6.6863 14 6 14C5.57878 14 5.12985 13.8632 4.91924 13.4984L3.61178 11.2338C3.39385 10.8563 3.50886 10.3831 3.72856 10.0067C3.90113 9.71099 4 9.36704 4 9C4 8.60568 3.88588 8.23801 3.68887 7.92822C3.44374 7.54275 3.30675 7.04468 3.53516 6.64906L4.77074 4.50898C4.99638 4.11816 5.48777 3.98553 5.93884 3.99908C5.95915 3.99969 5.97954 4 6 4C6.74404 4 7.39319 3.59371 7.73768 2.99088C7.95488 2.61081 8.30818 2.27163 8.74593 2.27163L11.2541 2.27163C11.6918 2.27163 12.0451 2.61081 12.2623 2.99088C12.6068 3.59371 13.256 4 14 4C14.3716 4 14.7606 4.13035 14.9464 4.45221L16.3338 6.85524C16.5441 7.21947 16.4442 7.67469 16.2429 8.04394C16.088 8.32797 16 8.65371 16 9C16 10.1046 16.8954 11 18 11C19.1046 11 20 10.1046 20 9C20 7.89543 19.1046 7 18 7C17.9504 7 17.9039 6.97472 17.8791 6.9318L15.9394 3.57213C15.7735 3.2847 15.8009 2.93237 15.9031 2.61662C15.966 2.42239 16 2.21517 16 2C16 0.89543 15.1046 0 14 0C13.4492 0 12.9505 0.222623 12.5888 0.582791C12.3711 0.799557 12.0964 0.971629 11.7892 0.971629L8.21084 0.971629C7.90364 0.971629 7.62889 0.799556 7.41121 0.582791C7.04952 0.222623 6.55076 0 6 0C4.89543 0 4 0.89543 4 2C4 2.15322 4.01723 2.30241 4.04985 2.44575ZM9.55456 7.12411C9.45103 7.1486 9.34958 7.18186 9.25019 7.22389C9.1459 7.268 9.04696 7.32038 8.95337 7.38102C8.84019 7.45436 8.73484 7.5398 8.63732 7.63732C8.53979 7.73484 8.45436 7.84019 8.38102 7.95338C8.32038 8.04696 8.268 8.1459 8.22389 8.25019C8.18186 8.34957 8.1486 8.45103 8.12411 8.55455C8.08995 8.699 8.07287 8.84748 8.07287 9C8.07287 9.15252 8.08995 9.30099 8.12411 9.44543C8.1486 9.54897 8.18186 9.65042 8.22389 9.74981C8.268 9.8541 8.32038 9.95304 8.38102 10.0466C8.45437 10.1598 8.5398 10.2652 8.63732 10.3627C8.73484 10.4602 8.84019 10.5456 8.95338 10.619C9.04696 10.6796 9.1459 10.732 9.25019 10.7761C9.34958 10.8181 9.45103 10.8514 9.55457 10.8759C9.69901 10.91 9.84748 10.9271 10 10.9271C10.1525 10.9271 10.301 10.91 10.4454 10.8759C10.549 10.8514 10.6504 10.8181 10.7498 10.7761C10.8541 10.732 10.953 10.6796 11.0466 10.619C11.1598 10.5456 11.2652 10.4602 11.3627 10.3627C11.4602 10.2652 11.5456 10.1598 11.619 10.0466C11.6796 9.95304 11.732 9.8541 11.7761 9.74981C11.8181 9.65042 11.8514 9.54897 11.8759 9.44543C11.91 9.30099 11.9271 9.15252 11.9271 9C11.9271 8.84748 11.91 8.699 11.8759 8.55457C11.8514 8.45103 11.8181 8.34958 11.7761 8.25019C11.732 8.1459 11.6796 8.04696 11.619 7.95337C11.5456 7.84019 11.4602 7.73484 11.3627 7.63732C11.2652 7.53979 11.1598 7.45436 11.0466 7.38101C10.953 7.32038 10.8541 7.268 10.7498 7.22389C10.6504 7.18186 10.549 7.1486 10.4454 7.12411C10.301 7.08995 10.1525 7.07287 10 7.07287C9.84748 7.07287 9.699 7.08995 9.55456 7.12411Z" fill="rgb(255,255,255)" fill-rule="evenodd" transform="matrix(0,1,1,0,5,4)" />
		</g>
	</mask>
	<defs>
		<linearGradient id="paint_linear_0" x1="25" x2="2.91665649" y1="24.7499981" y2="1.52587891e-05" gradientUnits="userSpaceOnUse">
			<stop stop-color="rgb(20,118,255)" offset="0.00499924878" stop-opacity="1" />
			<stop stop-color="rgb(163,78,246)" offset="0.871627152" stop-opacity="1" />
		</linearGradient>
		<linearGradient id="paint_linear_1" x1="20.0000019" x2="4.27408314" y1="19.5000076" y2="-1.63042259" gradientUnits="userSpaceOnUse">
			<stop stop-color="rgb(0,126,255)" offset="0.00499924878" stop-opacity="1" />
			<stop stop-color="rgb(144,38,244)" offset="0.871627152" stop-opacity="1" />
		</linearGradient>
		<filter id="pixso_custom_mask_type_outline">
			<feColorMatrix type="matrix" values="0 0 0 0 1 0 0 0 0 1 0 0 0 0 1 0 0 0 1 0 " />
		</filter>
	</defs>
	<g id="11">
		<rect id="矩形 111" width="28.000000" height="28.000000" x="0.000000" y="0.000000" rx="7.000000" fill="url(#paint_linear_0)" fill-opacity="0" />
		<rect id="矩形 111" width="28.000000" height="28.000000" x="0.000000" y="0.000000" rx="7.000000" fill="rgb(25,25,25)" />
		<g id="组合 2359">
			<g id="组合 2350" showMaskRef="url(#show_mask_0)" mask="url(#mask_0)">
				<g id="show_mask_0">
					<path id="合并" d="M4.04985 2.44575C4.11482 2.73116 4.11862 3.03848 3.97227 3.29197L2.05546 6.61198C1.91243 6.85972 1.65272 7.00923 1.38069 7.09773C0.579259 7.35847 0 8.11159 0 9C0 9.92587 0.629138 10.7048 1.48323 10.9326C1.78167 11.0122 2.07029 11.1638 2.22472 11.4313L4.02099 14.5426C4.17879 14.8159 4.16182 15.1495 4.07569 15.4531C4.02639 15.6269 4 15.8104 4 16C4 17.1046 4.89543 18 6 18C6.62114 18 7.17615 17.7168 7.54298 17.2726C7.7668 17.0015 8.07123 16.7785 8.42276 16.7785L11.5772 16.7785C11.9288 16.7785 12.2332 17.0015 12.457 17.2726C12.8238 17.7168 13.3789 18 14 18C15.1046 18 16 17.1046 16 16C16 14.8954 15.1046 14 14 14C13.7235 14 13.4434 13.8922 13.3011 13.6551L12.4897 12.3028C12.4497 12.2361 12.4665 12.1502 12.5268 12.101C12.6317 12.0155 12.7322 11.9246 12.8284 11.8284C12.9246 11.7322 13.0155 11.6317 13.101 11.5268C13.177 11.4337 13.2487 11.3371 13.3162 11.2372C13.3968 11.1179 13.4705 10.9951 13.5374 10.8686C13.5911 10.7672 13.6404 10.6634 13.6852 10.5573C13.7363 10.4365 13.7813 10.3138 13.82 10.1891C13.8592 10.0631 13.8921 9.93503 13.9187 9.80504C13.937 9.71586 13.9522 9.62627 13.9643 9.53627C13.9881 9.35911 14 9.18036 14 9C14 8.81965 13.9881 8.64091 13.9643 8.46376C13.9522 8.37375 13.937 8.28415 13.9187 8.19496C13.8921 8.06494 13.8592 7.93688 13.82 7.81078C13.7812 7.68617 13.7363 7.56348 13.6852 7.4427C13.6404 7.33659 13.5911 7.23281 13.5374 7.13135C13.4705 7.0049 13.3968 6.88206 13.3162 6.76284C13.2487 6.66285 13.1769 6.56629 13.101 6.47315C13.0155 6.36828 12.9246 6.26775 12.8284 6.17157C12.7323 6.0754 12.6317 5.98456 12.5269 5.89904C12.4337 5.82307 12.3372 5.75131 12.2372 5.68375C12.1179 5.60317 11.995 5.52942 11.8685 5.4625C11.7671 5.40887 11.6633 5.35962 11.5573 5.31476C11.4365 5.26368 11.3138 5.21876 11.1892 5.17999C11.0631 5.14077 10.9351 5.10786 10.805 5.08125C10.7159 5.063 10.6263 5.04783 10.5363 5.03573C10.3591 5.01191 10.1804 5 10 5C9.81965 5 9.64091 5.01191 9.46376 5.03572L9.46266 5.03587C9.37301 5.04795 9.28378 5.06307 9.19496 5.08125C9.06496 5.10785 8.93692 5.14076 8.81084 5.17998C8.68621 5.21874 8.5635 5.26367 8.4427 5.31476C8.33664 5.35962 8.2329 5.40888 8.13149 5.46252C8.00499 5.52943 7.88211 5.60317 7.76284 5.68375C7.66284 5.75131 7.56626 5.82307 7.47312 5.89904C7.36826 5.98456 7.26774 6.0754 7.17157 6.17157C7.0754 6.26775 6.98455 6.36827 6.89903 6.47313C6.82307 6.56627 6.75131 6.66284 6.68375 6.76284C6.60316 6.88213 6.5294 7.00503 6.46248 7.13155C6.40885 7.23295 6.35961 7.33666 6.31476 7.4427C6.26368 7.56348 6.21875 7.68618 6.17999 7.81079C6.14077 7.93689 6.10785 8.06494 6.08125 8.19496C6.063 8.28414 6.04783 8.37373 6.03573 8.46373C6.01191 8.64089 6 8.81964 6 9C6 9.18035 6.01191 9.3591 6.03572 9.53625C6.04782 9.62626 6.063 9.71586 6.08125 9.80504C6.10785 9.93505 6.14077 10.0631 6.17999 10.1892C6.21875 10.3138 6.26368 10.4365 6.31476 10.5573C6.35963 10.6634 6.40888 10.7671 6.46253 10.8685C6.52944 10.995 6.60318 11.1179 6.68375 11.2372C6.75131 11.3372 6.82307 11.4337 6.89903 11.5269C6.98455 11.6317 7.0754 11.7323 7.17157 11.8284C7.26777 11.9246 7.36832 12.0155 7.47321 12.101C7.56633 12.177 7.66287 12.2487 7.76284 12.3162C7.88208 12.3968 8.00494 12.4705 8.13141 12.5374C8.23285 12.5911 8.33661 12.6404 8.4427 12.6852C8.56352 12.7363 8.68626 12.7813 8.81091 12.82C8.93696 12.8593 9.06498 12.8922 9.19496 12.9187C9.28414 12.937 9.37373 12.9522 9.46373 12.9643C9.64089 12.9881 9.81964 13 10 13C10.1803 13 10.3591 12.9881 10.5362 12.9643C10.6263 12.9522 10.7159 12.937 10.805 12.9187C10.9351 12.8921 11.0631 12.8592 11.1892 12.82C11.2358 12.8055 11.2865 12.8241 11.3115 12.8659L12.2381 14.4102C12.3597 14.613 12.3349 14.8668 12.2256 15.0764C12.1076 15.3027 11.8914 15.4785 11.6362 15.4785L8.60184 15.4785C8.20623 15.4785 7.87538 15.199 7.65207 14.8724C7.29186 14.3457 6.6863 14 6 14C5.57878 14 5.12985 13.8632 4.91924 13.4984L3.61178 11.2338C3.39385 10.8563 3.50886 10.3831 3.72856 10.0067C3.90113 9.71099 4 9.36704 4 9C4 8.60568 3.88588 8.23801 3.68887 7.92822C3.44374 7.54275 3.30675 7.04468 3.53516 6.64906L4.77074 4.50898C4.99638 4.11816 5.48777 3.98553 5.93884 3.99908C5.95915 3.99969 5.97954 4 6 4C6.74404 4 7.39319 3.59371 7.73768 2.99088C7.95488 2.61081 8.30818 2.27163 8.74593 2.27163L11.2541 2.27163C11.6918 2.27163 12.0451 2.61081 12.2623 2.99088C12.6068 3.59371 13.256 4 14 4C14.3716 4 14.7606 4.13035 14.9464 4.45221L16.3338 6.85524C16.5441 7.21947 16.4442 7.67469 16.2429 8.04394C16.088 8.32797 16 8.65371 16 9C16 10.1046 16.8954 11 18 11C19.1046 11 20 10.1046 20 9C20 7.89543 19.1046 7 18 7C17.9504 7 17.9039 6.97472 17.8791 6.9318L15.9394 3.57213C15.7735 3.2847 15.8009 2.93237 15.9031 2.61662C15.966 2.42239 16 2.21517 16 2C16 0.89543 15.1046 0 14 0C13.4492 0 12.9505 0.222623 12.5888 0.582791C12.3711 0.799557 12.0964 0.971629 11.7892 0.971629L8.21084 0.971629C7.90364 0.971629 7.62889 0.799556 7.41121 0.582791C7.04952 0.222623 6.55076 0 6 0C4.89543 0 4 0.89543 4 2C4 2.15322 4.01723 2.30241 4.04985 2.44575ZM9.55456 7.12411C9.45103 7.1486 9.34958 7.18186 9.25019 7.22389C9.1459 7.268 9.04696 7.32038 8.95337 7.38102C8.84019 7.45436 8.73484 7.5398 8.63732 7.63732C8.53979 7.73484 8.45436 7.84019 8.38102 7.95338C8.32038 8.04696 8.268 8.1459 8.22389 8.25019C8.18186 8.34957 8.1486 8.45103 8.12411 8.55455C8.08995 8.699 8.07287 8.84748 8.07287 9C8.07287 9.15252 8.08995 9.30099 8.12411 9.44543C8.1486 9.54897 8.18186 9.65042 8.22389 9.74981C8.268 9.8541 8.32038 9.95304 8.38102 10.0466C8.45437 10.1598 8.5398 10.2652 8.63732 10.3627C8.73484 10.4602 8.84019 10.5456 8.95338 10.619C9.04696 10.6796 9.1459 10.732 9.25019 10.7761C9.34958 10.8181 9.45103 10.8514 9.55457 10.8759C9.69901 10.91 9.84748 10.9271 10 10.9271C10.1525 10.9271 10.301 10.91 10.4454 10.8759C10.549 10.8514 10.6504 10.8181 10.7498 10.7761C10.8541 10.732 10.953 10.6796 11.0466 10.619C11.1598 10.5456 11.2652 10.4602 11.3627 10.3627C11.4602 10.2652 11.5456 10.1598 11.619 10.0466C11.6796 9.95304 11.732 9.8541 11.7761 9.74981C11.8181 9.65042 11.8514 9.54897 11.8759 9.44543C11.91 9.30099 11.9271 9.15252 11.9271 9C11.9271 8.84748 11.91 8.699 11.8759 8.55457C11.8514 8.45103 11.8181 8.34958 11.7761 8.25019C11.732 8.1459 11.6796 8.04696 11.619 7.95337C11.5456 7.84019 11.4602 7.73484 11.3627 7.63732C11.2652 7.53979 11.1598 7.45436 11.0466 7.38101C10.953 7.32038 10.8541 7.268 10.7498 7.22389C10.6504 7.18186 10.549 7.1486 10.4454 7.12411C10.301 7.08995 10.1525 7.07287 10 7.07287C9.84748 7.07287 9.699 7.08995 9.55456 7.12411Z" fill="url(#paint_linear_1)" fill-opacity="0" fill-rule="evenodd" transform="matrix(0,1,1,0,5,4)" />
					<path id="合并" d="M4.04985 2.44575C4.11482 2.73116 4.11862 3.03848 3.97227 3.29197L2.05546 6.61198C1.91243 6.85972 1.65272 7.00923 1.38069 7.09773C0.579259 7.35847 0 8.11159 0 9C0 9.92587 0.629138 10.7048 1.48323 10.9326C1.78167 11.0122 2.07029 11.1638 2.22472 11.4313L4.02099 14.5426C4.17879 14.8159 4.16182 15.1495 4.07569 15.4531C4.02639 15.6269 4 15.8104 4 16C4 17.1046 4.89543 18 6 18C6.62114 18 7.17615 17.7168 7.54298 17.2726C7.7668 17.0015 8.07123 16.7785 8.42276 16.7785L11.5772 16.7785C11.9288 16.7785 12.2332 17.0015 12.457 17.2726C12.8238 17.7168 13.3789 18 14 18C15.1046 18 16 17.1046 16 16C16 14.8954 15.1046 14 14 14C13.7235 14 13.4434 13.8922 13.3011 13.6551L12.4897 12.3028C12.4497 12.2361 12.4665 12.1502 12.5268 12.101C12.6317 12.0155 12.7322 11.9246 12.8284 11.8284C12.9246 11.7322 13.0155 11.6317 13.101 11.5268C13.177 11.4337 13.2487 11.3371 13.3162 11.2372C13.3968 11.1179 13.4705 10.9951 13.5374 10.8686C13.5911 10.7672 13.6404 10.6634 13.6852 10.5573C13.7363 10.4365 13.7813 10.3138 13.82 10.1891C13.8592 10.0631 13.8921 9.93503 13.9187 9.80504C13.937 9.71586 13.9522 9.62627 13.9643 9.53627C13.9881 9.35911 14 9.18036 14 9C14 8.81965 13.9881 8.64091 13.9643 8.46376C13.9522 8.37375 13.937 8.28415 13.9187 8.19496C13.8921 8.06494 13.8592 7.93688 13.82 7.81078C13.7812 7.68617 13.7363 7.56348 13.6852 7.4427C13.6404 7.33659 13.5911 7.23281 13.5374 7.13135C13.4705 7.0049 13.3968 6.88206 13.3162 6.76284C13.2487 6.66285 13.1769 6.56629 13.101 6.47315C13.0155 6.36828 12.9246 6.26775 12.8284 6.17157C12.7323 6.0754 12.6317 5.98456 12.5269 5.89904C12.4337 5.82307 12.3372 5.75131 12.2372 5.68375C12.1179 5.60317 11.995 5.52942 11.8685 5.4625C11.7671 5.40887 11.6633 5.35962 11.5573 5.31476C11.4365 5.26368 11.3138 5.21876 11.1892 5.17999C11.0631 5.14077 10.9351 5.10786 10.805 5.08125C10.7159 5.063 10.6263 5.04783 10.5363 5.03573C10.3591 5.01191 10.1804 5 10 5C9.81965 5 9.64091 5.01191 9.46376 5.03572L9.46266 5.03587C9.37301 5.04795 9.28378 5.06307 9.19496 5.08125C9.06496 5.10785 8.93692 5.14076 8.81084 5.17998C8.68621 5.21874 8.5635 5.26367 8.4427 5.31476C8.33664 5.35962 8.2329 5.40888 8.13149 5.46252C8.00499 5.52943 7.88211 5.60317 7.76284 5.68375C7.66284 5.75131 7.56626 5.82307 7.47312 5.89904C7.36826 5.98456 7.26774 6.0754 7.17157 6.17157C7.0754 6.26775 6.98455 6.36827 6.89903 6.47313C6.82307 6.56627 6.75131 6.66284 6.68375 6.76284C6.60316 6.88213 6.5294 7.00503 6.46248 7.13155C6.40885 7.23295 6.35961 7.33666 6.31476 7.4427C6.26368 7.56348 6.21875 7.68618 6.17999 7.81079C6.14077 7.93689 6.10785 8.06494 6.08125 8.19496C6.063 8.28414 6.04783 8.37373 6.03573 8.46373C6.01191 8.64089 6 8.81964 6 9C6 9.18035 6.01191 9.3591 6.03572 9.53625C6.04782 9.62626 6.063 9.71586 6.08125 9.80504C6.10785 9.93505 6.14077 10.0631 6.17999 10.1892C6.21875 10.3138 6.26368 10.4365 6.31476 10.5573C6.35963 10.6634 6.40888 10.7671 6.46253 10.8685C6.52944 10.995 6.60318 11.1179 6.68375 11.2372C6.75131 11.3372 6.82307 11.4337 6.89903 11.5269C6.98455 11.6317 7.0754 11.7323 7.17157 11.8284C7.26777 11.9246 7.36832 12.0155 7.47321 12.101C7.56633 12.177 7.66287 12.2487 7.76284 12.3162C7.88208 12.3968 8.00494 12.4705 8.13141 12.5374C8.23285 12.5911 8.33661 12.6404 8.4427 12.6852C8.56352 12.7363 8.68626 12.7813 8.81091 12.82C8.93696 12.8593 9.06498 12.8922 9.19496 12.9187C9.28414 12.937 9.37373 12.9522 9.46373 12.9643C9.64089 12.9881 9.81964 13 10 13C10.1803 13 10.3591 12.9881 10.5362 12.9643C10.6263 12.9522 10.7159 12.937 10.805 12.9187C10.9351 12.8921 11.0631 12.8592 11.1892 12.82C11.2358 12.8055 11.2865 12.8241 11.3115 12.8659L12.2381 14.4102C12.3597 14.613 12.3349 14.8668 12.2256 15.0764C12.1076 15.3027 11.8914 15.4785 11.6362 15.4785L8.60184 15.4785C8.20623 15.4785 7.87538 15.199 7.65207 14.8724C7.29186 14.3457 6.6863 14 6 14C5.57878 14 5.12985 13.8632 4.91924 13.4984L3.61178 11.2338C3.39385 10.8563 3.50886 10.3831 3.72856 10.0067C3.90113 9.71099 4 9.36704 4 9C4 8.60568 3.88588 8.23801 3.68887 7.92822C3.44374 7.54275 3.30675 7.04468 3.53516 6.64906L4.77074 4.50898C4.99638 4.11816 5.48777 3.98553 5.93884 3.99908C5.95915 3.99969 5.97954 4 6 4C6.74404 4 7.39319 3.59371 7.73768 2.99088C7.95488 2.61081 8.30818 2.27163 8.74593 2.27163L11.2541 2.27163C11.6918 2.27163 12.0451 2.61081 12.2623 2.99088C12.6068 3.59371 13.256 4 14 4C14.3716 4 14.7606 4.13035 14.9464 4.45221L16.3338 6.85524C16.5441 7.21947 16.4442 7.67469 16.2429 8.04394C16.088 8.32797 16 8.65371 16 9C16 10.1046 16.8954 11 18 11C19.1046 11 20 10.1046 20 9C20 7.89543 19.1046 7 18 7C17.9504 7 17.9039 6.97472 17.8791 6.9318L15.9394 3.57213C15.7735 3.2847 15.8009 2.93237 15.9031 2.61662C15.966 2.42239 16 2.21517 16 2C16 0.89543 15.1046 0 14 0C13.4492 0 12.9505 0.222623 12.5888 0.582791C12.3711 0.799557 12.0964 0.971629 11.7892 0.971629L8.21084 0.971629C7.90364 0.971629 7.62889 0.799556 7.41121 0.582791C7.04952 0.222623 6.55076 0 6 0C4.89543 0 4 0.89543 4 2C4 2.15322 4.01723 2.30241 4.04985 2.44575ZM9.55456 7.12411C9.45103 7.1486 9.34958 7.18186 9.25019 7.22389C9.1459 7.268 9.04696 7.32038 8.95337 7.38102C8.84019 7.45436 8.73484 7.5398 8.63732 7.63732C8.53979 7.73484 8.45436 7.84019 8.38102 7.95338C8.32038 8.04696 8.268 8.1459 8.22389 8.25019C8.18186 8.34957 8.1486 8.45103 8.12411 8.55455C8.08995 8.699 8.07287 8.84748 8.07287 9C8.07287 9.15252 8.08995 9.30099 8.12411 9.44543C8.1486 9.54897 8.18186 9.65042 8.22389 9.74981C8.268 9.8541 8.32038 9.95304 8.38102 10.0466C8.45437 10.1598 8.5398 10.2652 8.63732 10.3627C8.73484 10.4602 8.84019 10.5456 8.95338 10.619C9.04696 10.6796 9.1459 10.732 9.25019 10.7761C9.34958 10.8181 9.45103 10.8514 9.55457 10.8759C9.69901 10.91 9.84748 10.9271 10 10.9271C10.1525 10.9271 10.301 10.91 10.4454 10.8759C10.549 10.8514 10.6504 10.8181 10.7498 10.7761C10.8541 10.732 10.953 10.6796 11.0466 10.619C11.1598 10.5456 11.2652 10.4602 11.3627 10.3627C11.4602 10.2652 11.5456 10.1598 11.619 10.0466C11.6796 9.95304 11.732 9.8541 11.7761 9.74981C11.8181 9.65042 11.8514 9.54897 11.8759 9.44543C11.91 9.30099 11.9271 9.15252 11.9271 9C11.9271 8.84748 11.91 8.699 11.8759 8.55457C11.8514 8.45103 11.8181 8.34958 11.7761 8.25019C11.732 8.1459 11.6796 8.04696 11.619 7.95337C11.5456 7.84019 11.4602 7.73484 11.3627 7.63732C11.2652 7.53979 11.1598 7.45436 11.0466 7.38101C10.953 7.32038 10.8541 7.268 10.7498 7.22389C10.6504 7.18186 10.549 7.1486 10.4454 7.12411C10.301 7.08995 10.1525 7.07287 10 7.07287C9.84748 7.07287 9.699 7.08995 9.55456 7.12411Z" fill="rgb(255,255,255)" fill-rule="evenodd" transform="matrix(0,1,1,0,5,4)" />
				</g>
			</g>
		</g>
	</g>
</svg>
