<svg viewBox="0 0 14 14" xmlns="http://www.w3.org/2000/svg" xmlns:xlink="http://www.w3.org/1999/xlink" width="14.000000" height="14.000000" fill="none">
	<mask id="mask_67" width="14.000000" height="14.000000" x="0.000000" y="0.000000" maskUnits="userSpaceOnUse">
		<g filter="url(#pixso_custom_mask_type_alpha)">
			<g id="mask_39">
				<g id="mask_42">
					<path id="减去顶层" d="M14 0L14 14L0 14L0 0L14 0ZM4.57645 5.81248L6.06395 4.32498C6.2372 4.15173 6.2372 3.87952 6.06395 3.70627C5.89073 3.53302 5.61849 3.53302 5.44524 3.70627L4.26711 4.8844L3.53229 4.1496C3.35907 3.97635 3.08682 3.97635 2.91358 4.1496C2.74034 4.32285 2.74034 4.59506 2.91358 4.76831L3.95774 5.81248C4.04317 5.89791 4.1463 5.94064 4.26711 5.94064C4.38792 5.94064 4.49105 5.89791 4.57645 5.81248ZM10.7917 4.22917L7.29167 4.22917C7.04667 4.22917 6.85417 4.42167 6.85417 4.66667C6.85417 4.91167 7.04667 5.10417 7.29167 5.10417L10.7917 5.10417C11.0367 5.10417 11.2292 4.91167 11.2292 4.66667C11.2292 4.42167 11.0367 4.22917 10.7917 4.22917ZM4.41233 8.33163C4.35263 8.31889 4.29158 8.3125 4.22917 8.3125C4.16675 8.3125 4.10569 8.31888 4.046 8.33163C3.99239 8.3431 3.93986 8.35969 3.88844 8.38145C3.83769 8.40292 3.78977 8.42864 3.74471 8.45862C3.69674 8.49051 3.65199 8.52724 3.61045 8.56879C3.56892 8.61032 3.5322 8.65506 3.50029 8.70301C3.47031 8.7481 3.44458 8.79603 3.42312 8.84678C3.40136 8.8982 3.38476 8.95072 3.3733 9.00433C3.36055 9.06404 3.35417 9.12508 3.35417 9.1875C3.35417 9.24992 3.36055 9.31099 3.3733 9.37067C3.38476 9.4243 3.40136 9.4768 3.42312 9.52822C3.44458 9.57897 3.47031 9.6269 3.50029 9.67196C3.5322 9.71994 3.56892 9.76468 3.61045 9.80621C3.65199 9.84775 3.69673 9.88447 3.74468 9.91638C3.78977 9.94636 3.83769 9.97208 3.88844 9.99355C3.93986 10.0153 3.99239 10.0319 4.046 10.0434C4.1057 10.0561 4.16675 10.0625 4.22917 10.0625C4.29158 10.0625 4.35263 10.0561 4.41233 10.0434C4.46594 10.0319 4.51847 10.0153 4.56989 9.99355C4.62064 9.97208 4.66856 9.94636 4.71365 9.91638C4.7616 9.88447 4.80635 9.84775 4.84788 9.80621C4.88941 9.76468 4.92613 9.71994 4.95804 9.67199C4.98803 9.6269 5.01375 9.57897 5.03522 9.52822C5.05697 9.4768 5.07357 9.42427 5.08503 9.37067C5.09778 9.31096 5.10417 9.24992 5.10417 9.1875C5.10417 9.12508 5.09778 9.06404 5.08503 9.00433C5.07357 8.95072 5.05697 8.8982 5.03522 8.84678C5.01375 8.79603 4.98803 8.7481 4.95804 8.70301C4.92613 8.65506 4.88941 8.61032 4.84788 8.56879C4.80635 8.52725 4.7616 8.49053 4.71365 8.45862C4.66856 8.42864 4.62064 8.40292 4.56989 8.38145C4.51847 8.35969 4.46594 8.3431 4.41233 8.33163ZM10.7917 8.75L7 8.75C6.755 8.75 6.5625 8.9425 6.5625 9.1875C6.5625 9.4325 6.755 9.625 7 9.625L10.7917 9.625C11.0367 9.625 11.2292 9.4325 11.2292 9.1875C11.2292 8.9425 11.0367 8.75 10.7917 8.75Z" fill="rgb(255,255,255)" fill-opacity="0" fill-rule="evenodd" />
				</g>
			</g>
		</g>
	</mask>
	<mask id="mask_66" width="14.000000" height="14.000000" x="0.000000" y="0.000000" maskUnits="userSpaceOnUse">
		<g filter="url(#pixso_custom_mask_type_outline)">
			<g id="clipPath_79">
				<rect id="矩形 544555" width="14.000000" height="14.000000" x="0.000000" y="0.000000" fill="rgb(255,255,255)" />
			</g>
		</g>
	</mask>
	<defs>
		<filter id="pixso_custom_mask_type_outline">
			<feColorMatrix type="matrix" values="0 0 0 0 1 0 0 0 0 1 0 0 0 0 1 0 0 0 1 0 " />
		</filter>
		<filter id="pixso_custom_mask_type_alpha">
			<feColorMatrix type="matrix" values="0 0 0 0 1 0 0 0 0 1 0 0 0 0 1 0 0 0 1 0 " />
		</filter>
	</defs>
	<mask id="mask_65" width="14.000000" height="14.000000" x="0.000000" y="0.000000" maskUnits="userSpaceOnUse">
		<g filter="url(#pixso_custom_mask_type_outline)">
			<g id="clipPath_78">
				<rect id="矩形 544554" width="14.000000" height="14.000000" x="0.000000" y="0.000000" fill="rgb(255,255,255)" />
			</g>
		</g>
	</mask>
	<rect id="当前任务" width="14.000000" height="14.000000" x="0.000000" y="0.000000" />
	<rect id="ic_public_calendar_list-任务/base/ic_public_calendar_list" width="14.000000" height="14.000000" x="0.000000" y="0.000000" fill="rgb(255,255,255)" fill-opacity="0" />
	<g id="clip path group" mask="url(#mask_65)">
		<g id="support">
			<rect id="support" width="14.000000" height="14.000000" x="0.000000" y="0.000000" />
			<path id="path1" d="M0.000319734 6.9941C0.000319734 5.90035 -0.00259693 4.8066 0.000319734 3.71285C-0.00259693 3.18201 0.0644864 2.65409 0.19282 2.14367C0.48157 1.05867 1.1874 0.414087 2.2724 0.163253C2.8149 0.0465859 3.372 -0.00883074 3.92614 -8.07467e-05C6.02322 -8.07467e-05 8.12031 -8.07467e-05 10.2203 -8.07467e-05C10.7482 -0.00299741 11.2761 0.0553359 11.7924 0.180753C12.9095 0.452004 13.5803 1.16075 13.8341 2.27492C13.9508 2.79992 14.0032 3.3366 13.9974 3.87618C13.9974 5.9966 13.9974 8.11701 13.9974 10.2345C14.0003 10.7595 13.942 11.2845 13.8195 11.7949C13.5453 12.912 12.8336 13.577 11.7224 13.8337C11.177 13.9503 10.6228 14.0058 10.0657 13.997C7.97739 13.997 5.88908 13.997 3.80072 13.997C3.26697 14.0028 2.73615 13.9416 2.21699 13.8191C1.09407 13.5478 0.42032 12.8362 0.16657 11.7162C0.0353198 11.1474 0.000319734 10.5787 0.000319734 10.0041C0.000319734 9.00076 0.000319734 7.99743 0.000319734 6.9941Z" fill="rgb(255,255,255)" fill-opacity="0" fill-rule="evenodd" />
			<circle id="path2" cx="7" cy="7" r="7" fill="rgb(255,255,255)" fill-opacity="0" />
		</g>
	</g>
	<g id="clip path group" mask="url(#mask_66)">
		<g id="border">
			<rect id="border" width="14.000000" height="14.000000" x="0.000000" y="0.000000" />
			<path id="path11" d="M12.9788 11.2288C12.9788 12.1943 12.1943 12.9788 11.2288 12.9788L2.77051 12.9788C1.80217 12.9788 1.02051 12.1943 1.02051 11.2288L1.02051 2.77051C1.02051 1.80217 1.80217 1.02051 2.77051 1.02051L11.2288 1.02051C12.1943 1.02051 12.9788 1.80217 12.9788 2.77051L12.9788 11.2288Z" fill-rule="nonzero" stroke="rgb(128,128,128)" stroke-width="1.000000" />
			<path id="path4" d="M5.75432 4.01562L4.26682 5.50312L3.22266 4.45896" fill-rule="nonzero" stroke="rgb(89,89,89)" stroke-linecap="round" stroke-linejoin="round" stroke-width="1.166667" />
			<circle id="path5" cx="4.22949219" cy="9.1875" r="0.4375" stroke="rgb(89,89,89)" stroke-linejoin="round" stroke-width="1.166667" />
			<path id="path12" d="M5.75432 4.01562L4.26682 5.50312L3.22266 4.45896" fill-rule="nonzero" stroke="rgb(89,89,89)" stroke-linecap="round" stroke-linejoin="round" stroke-width="1.000000" />
			<circle id="path13" cx="4.22949219" cy="9.1875" r="0.4375" stroke="rgb(89,89,89)" stroke-linejoin="round" stroke-width="1.000000" />
			<path id="path6" d="M7.29167 4.66699L10.7917 4.66699M7 9.18783L10.7917 9.18783" stroke="rgb(89,89,89)" stroke-linecap="round" stroke-linejoin="round" stroke-width="1.000000" />
		</g>
	</g>
	<g id="filled">
		<rect id="filled" width="14.000000" height="14.000000" x="0.000000" y="0.000000" />
		<g id="mask" mask="url(#mask_67)">
			<g id="mask">
				<path id="path11" d="M11.2288 1.02051C12.1943 1.02051 12.9788 1.80217 12.9788 2.77051L12.9788 11.2288C12.9788 12.1943 12.1943 12.9788 11.2288 12.9788L2.77051 12.9788C1.80217 12.9788 1.02051 12.1943 1.02051 11.2288L1.02051 2.77051C1.02051 1.80217 1.80217 1.02051 2.77051 1.02051L11.2288 1.02051Z" fill="rgb(255,255,255)" fill-opacity="0" fill-rule="nonzero" />
				<path id="path11" d="M12.9788 11.2288C12.9788 12.1943 12.1943 12.9788 11.2288 12.9788L2.77051 12.9788C1.80217 12.9788 1.02051 12.1943 1.02051 11.2288L1.02051 2.77051C1.02051 1.80217 1.80217 1.02051 2.77051 1.02051L11.2288 1.02051C12.1943 1.02051 12.9788 1.80217 12.9788 2.77051L12.9788 11.2288Z" fill-rule="nonzero" stroke="rgb(255,255,255)" stroke-opacity="0" stroke-width="1.166667" />
			</g>
		</g>
		<path id="path4(边框)" d="M6.06351 4.32482L4.57601 5.81232C4.49061 5.89775 4.38747 5.94048 4.26667 5.94048C4.14586 5.94048 4.04272 5.89775 3.95729 5.81232L2.91313 4.76816C2.73989 4.59491 2.73989 4.32269 2.91313 4.14944C3.08638 3.97619 3.35862 3.97619 3.53184 4.14944L4.26667 4.88424L5.44479 3.70611C5.61804 3.53286 5.89029 3.53286 6.06351 3.70611C6.23676 3.87936 6.23676 4.15157 6.06351 4.32482Z" fill="rgb(255,255,255)" fill-opacity="0" fill-rule="evenodd" />
		<path id="path5(边框)" d="M4.41266 8.33163C4.35295 8.31889 4.29191 8.3125 4.22949 8.3125C4.16708 8.3125 4.106 8.31889 4.04633 8.33163C3.99269 8.3431 3.94019 8.35969 3.88877 8.38145C3.83802 8.40292 3.7901 8.42864 3.74503 8.45862C3.69705 8.49053 3.65231 8.52723 3.61078 8.56879C3.56925 8.61032 3.53253 8.65506 3.50062 8.70301C3.47063 8.7481 3.44491 8.79603 3.42344 8.84678C3.40168 8.8982 3.38509 8.95072 3.37363 9.00433C3.36088 9.06404 3.35449 9.12508 3.35449 9.1875C3.35449 9.24992 3.36088 9.31099 3.37363 9.37067C3.38509 9.4243 3.40168 9.4768 3.42344 9.52822C3.44491 9.57898 3.47063 9.6269 3.50062 9.67196C3.53253 9.71994 3.56925 9.76468 3.61078 9.80621C3.65231 9.84775 3.69705 9.88447 3.745 9.91638C3.7901 9.94636 3.83802 9.97208 3.88877 9.99355C3.94019 10.0153 3.99272 10.0319 4.04633 10.0434C4.10603 10.0561 4.16708 10.0625 4.22949 10.0625C4.29191 10.0625 4.35295 10.0561 4.41266 10.0434C4.46627 10.0319 4.5188 10.0153 4.57022 9.99355C4.62097 9.97208 4.66889 9.94636 4.71398 9.91638C4.76193 9.88447 4.80667 9.84775 4.8482 9.80621C4.88974 9.76468 4.92646 9.71994 4.95837 9.67199C4.98835 9.6269 5.01408 9.57898 5.03554 9.52822C5.0573 9.4768 5.0739 9.42427 5.08536 9.37067C5.0981 9.31096 5.10449 9.24992 5.10449 9.1875C5.10449 9.12508 5.0981 9.06404 5.08536 9.00433C5.0739 8.95072 5.0573 8.8982 5.03554 8.84678C5.01408 8.79603 4.98835 8.7481 4.95837 8.70301C4.92646 8.65506 4.88974 8.61032 4.8482 8.56879C4.80667 8.52725 4.76193 8.49053 4.71398 8.45862C4.66889 8.42864 4.62097 8.40292 4.57022 8.38145C4.5188 8.35969 4.46627 8.3431 4.41266 8.33163Z" fill="rgb(255,255,255)" fill-opacity="0" fill-rule="evenodd" />
	</g>
</svg>
