<svg viewBox="0 0 16 16" xmlns="http://www.w3.org/2000/svg" xmlns:xlink="http://www.w3.org/1999/xlink" width="16.000000" height="16.000000" fill="none" customFrame="#000000">
	<rect id="配置信息" width="16.000000" height="16.000000" x="0.000000" y="0.000000" />
	<path id="合并" d="M10.6916 0.988892L10.8881 1.71192L11.0151 2.17895L11.5221 2.47227L11.8549 2.38455L12.7099 2.15906C12.8561 2.12048 13.0009 2.10608 13.144 2.11597C13.2704 2.12472 13.3957 2.15241 13.5196 2.19903C13.6529 2.25641 13.8352 2.35643 13.9387 2.44751C13.995 2.49711 14.047 2.55169 14.0946 2.61126C14.1338 2.66037 14.17 2.71286 14.2033 2.76874L15.6135 5.2168C15.6887 5.34753 15.7402 5.48291 15.7682 5.62305C15.794 5.75158 15.7996 5.88401 15.7855 6.02043C15.7656 6.16513 15.7191 6.35009 15.6581 6.47485C15.6253 6.54203 15.5866 6.60627 15.542 6.66761C15.504 6.71979 15.4618 6.76987 15.4153 6.81787L14.832 7.40786L14.5375 7.70569L14.5375 8.29431L15.405 9.17151C15.4603 9.22752 15.5097 9.2864 15.5533 9.34815C15.5816 9.38832 15.6075 9.42972 15.6308 9.47233C15.687 9.58862 15.7551 9.77098 15.7758 9.90437C15.7788 9.92717 15.7865 9.98763 15.7884 10.0102C15.7987 10.1358 15.792 10.2581 15.7682 10.377C15.7426 10.505 15.6973 10.6293 15.6323 10.7494L14.2136 13.2136C14.1379 13.3448 14.0463 13.4578 13.9389 13.5524C13.8823 13.6021 13.8213 13.6469 13.7558 13.6866C13.7017 13.7195 13.6446 13.7489 13.5844 13.7748C13.4454 13.8328 13.2881 13.8738 13.1457 13.8839C13.0089 13.8932 12.8682 13.8806 12.7282 13.8455L11.7064 13.5762L11.5226 13.5277L11.0151 13.8214L10.9223 14.1627L10.6916 15.0112C10.6518 15.1571 10.592 15.2896 10.5121 15.4084C10.4321 15.5273 10.3322 15.6327 10.2121 15.7245C10.152 15.7703 10.0901 15.8104 10.0263 15.8448C9.97971 15.8699 9.93211 15.892 9.88351 15.911C9.74777 15.9569 9.54901 16 9.39788 16L6.6015 16C6.45037 16 6.30706 15.9771 6.17132 15.9312C6.0365 15.8853 5.90692 15.8158 5.78753 15.7246C5.7269 15.6783 5.67136 15.6285 5.62096 15.5752C5.58582 15.5381 5.55318 15.4993 5.52304 15.4588C5.45905 15.3636 5.37236 15.2094 5.33409 15.0968L5.18498 14.5598L4.98382 13.8212L4.53363 13.5605L4.2803 13.5796L3.28973 13.8408C3.15474 13.8731 2.98793 13.8931 2.85589 13.884C2.7521 13.8767 2.64714 13.8565 2.54514 13.8237C2.54033 13.8217 2.43665 13.7839 2.43182 13.7819C2.29217 13.7236 2.16839 13.6471 2.06073 13.5524C2.00449 13.5028 1.9526 13.4483 1.90506 13.3887C1.86504 13.3386 1.8281 13.2849 1.79424 13.2276L1.14559 12.1016L0.386166 10.7831C0.329156 10.6719 0.2548 10.4948 0.231381 10.3768C0.205081 10.2456 0.199561 10.1101 0.215022 9.97059C0.235221 9.82786 0.281292 9.64833 0.341244 9.52515C0.37381 9.45849 0.412229 9.3947 0.456467 9.33376C0.497462 9.27728 0.543455 9.22324 0.594418 9.17163L1.46185 8.29407L1.46185 7.70532L0.594662 6.82849C0.539378 6.77251 0.489943 6.71366 0.446391 6.65193C0.417882 6.61152 0.391893 6.56986 0.368435 6.52696C0.311032 6.40948 0.244869 6.23099 0.223839 6.09582C0.220889 6.07293 0.213089 6.01219 0.211238 5.98952C0.200984 5.86399 0.207599 5.74187 0.231381 5.62317C0.254083 5.50876 0.292705 5.3976 0.346982 5.28956L1.78607 2.78638C1.86175 2.65515 1.9533 2.54224 2.06073 2.44763C2.11731 2.39785 2.17833 2.3531 2.24378 2.31338C2.29792 2.28052 2.35509 2.25111 2.41525 2.22516C2.55425 2.16721 2.7115 2.12617 2.85388 2.11611C2.99048 2.10677 3.13089 2.1194 3.27064 2.15428L4.29351 2.4239L4.47697 2.47229L4.98382 2.17883L5.18254 1.44919L5.30804 0.988403C5.34711 0.865777 5.41862 0.69389 5.48748 0.591431C5.56732 0.472534 5.66742 0.367188 5.78753 0.275391C5.84823 0.229006 5.91092 0.188481 5.9756 0.153816C6.0212 0.129379 6.06779 0.107853 6.11537 0.0892382C6.25112 0.0433398 6.45037 0 6.6015 0L9.39788 0C9.54901 0 9.69256 0.0229492 9.8283 0.0688477C9.9638 0.114868 10.0917 0.183716 10.2118 0.275513C10.2731 0.322278 10.329 0.37252 10.3797 0.426253C10.4124 0.460915 10.443 0.49703 10.4714 0.534602C10.5512 0.653499 10.6518 0.842896 10.6916 0.988892ZM10.1042 2.63989C10.1127 2.67163 10.176 2.78467 10.1904 2.8136C10.2104 2.8396 10.3117 2.92017 10.3361 2.94141L10.5399 3.05932L11.1996 3.44116C11.2341 3.45839 11.3539 3.49382 11.3835 3.50391C11.4074 3.50712 11.4829 3.50021 11.5344 3.4955L12.1097 3.35154L12.9648 3.1261C13.0021 3.11621 13.0388 3.11255 13.0751 3.11511C13.08 3.1169 13.178 3.13897 13.1828 3.14099C13.2201 3.15884 13.32 3.2618 13.3469 3.2854L14.7468 5.71582C14.766 5.74902 14.779 5.78345 14.7861 5.81909C14.7857 5.82318 14.79 5.92545 14.7895 5.92957C14.7827 5.9694 14.7094 6.09324 14.6938 6.12537L14.1225 6.70321L13.6821 7.14868C13.6589 7.17212 13.593 7.28333 13.5751 7.31018C13.5627 7.34058 13.5439 7.46863 13.5375 7.50024L13.5375 8.49976C13.5375 8.53271 13.569 8.65808 13.5751 8.68982C13.5876 8.72021 13.6642 8.82434 13.6821 8.85132L14.7582 9.96448C14.7587 9.96756 14.7891 10.0673 14.7895 10.0704C14.7927 10.104 14.7926 10.1492 14.7861 10.1809C14.779 10.2166 14.766 10.251 14.7468 10.2842L13.3469 12.7146C13.3278 12.7479 13.2101 12.8348 13.1828 12.8589C13.1474 12.8738 13.1115 12.8823 13.0751 12.8849C13.042 12.8871 13.0086 12.8843 12.9747 12.8764L11.9551 12.6076L11.5783 12.5082C11.5441 12.5001 11.4162 12.498 11.3842 12.496C11.3515 12.5004 11.2309 12.5483 11.2004 12.5588L10.3361 13.059C10.3076 13.0754 10.2145 13.1654 10.1904 13.1868C10.1703 13.2129 10.1186 13.3315 10.1042 13.3605L9.95534 13.9076L9.7265 14.7488C9.71649 14.7859 9.70135 14.8195 9.68084 14.8497C9.66058 14.8799 9.53778 14.9591 9.50726 14.9825C9.47284 14.9941 9.43621 15 9.39788 15L6.6015 15C6.56317 15 6.52679 14.9941 6.49237 14.9825C6.4577 14.9708 6.34906 14.873 6.31854 14.8497C6.31688 14.8445 6.27433 14.7542 6.27288 14.7489L6.14562 14.2815L5.89471 13.36C5.88348 13.3248 5.82253 13.2145 5.80853 13.1864C5.78866 13.1605 5.68844 13.081 5.66332 13.0591L5.03665 12.6962L4.79925 12.5588C4.77069 12.5424 4.64618 12.5065 4.61541 12.496C4.59155 12.4929 4.51637 12.4997 4.46493 12.5045L4.03463 12.6102L3.03485 12.8739C3.00087 12.8818 2.9577 12.8871 2.9245 12.8849C2.88812 12.8823 2.85223 12.8738 2.81683 12.8589C2.78119 12.8441 2.68011 12.7386 2.65277 12.7146L2.01651 11.6101L1.25262 10.2841C1.23825 10.2559 1.21925 10.2107 1.21331 10.1808C1.20684 10.1482 1.20547 10.1147 1.20901 10.0801C1.21672 10.0394 1.28971 9.90713 1.30548 9.87476L2.31732 8.85095C2.34051 8.82751 2.40643 8.71643 2.42425 8.68945C2.4367 8.65894 2.45575 8.53101 2.46185 8.49939L2.46185 7.49988C2.46185 7.46692 2.4306 7.34155 2.42425 7.30981C2.4118 7.27942 2.33514 7.17529 2.31732 7.14832L1.24139 6.03552C1.24083 6.032 1.2106 5.93313 1.21014 5.92957C1.20695 5.896 1.20704 5.85081 1.21356 5.81909C1.22064 5.78345 1.23358 5.74902 1.25287 5.71582L2.65277 3.2854C2.67181 3.25208 2.78949 3.16516 2.81683 3.14111C2.85223 3.12622 2.88812 3.11768 2.9245 3.11511C2.95767 3.11289 2.99105 3.11574 3.025 3.12366L4.04192 3.39174L4.42132 3.49182C4.45555 3.49994 4.5834 3.50198 4.61541 3.50403C4.64813 3.49963 4.76873 3.45166 4.79925 3.44116L5.03849 3.30271L5.66278 2.94141C5.69491 2.92018 5.78509 2.83411 5.80853 2.8136C5.82848 2.78757 5.87995 2.66977 5.89456 2.64032L6.14442 1.7229L6.27288 1.2511C6.28281 1.21955 6.30085 1.17659 6.31854 1.15027C6.3388 1.12012 6.46185 1.04077 6.49237 1.01746C6.52679 1.00586 6.56317 1 6.6015 1L9.39788 1C9.43621 1 9.47259 1.00586 9.50726 1.01746C9.54168 1.02917 9.65033 1.12695 9.68084 1.15039C9.70135 1.18054 9.71649 1.21423 9.7265 1.25122L9.92133 1.96759L10.1042 2.63989ZM7.99969 4.56519C7.4319 4.56519 6.8963 4.70296 6.42449 4.9469C6.13825 5.0949 5.87549 5.28197 5.64327 5.50107C5.59445 5.54713 5.54698 5.5946 5.50093 5.64342C5.28042 5.87718 5.09235 6.14188 4.94391 6.43032C4.8593 6.59473 4.78757 6.76685 4.73005 6.94535C4.62296 7.27766 4.56512 7.63207 4.56512 8C4.56512 8.36792 4.62296 8.72234 4.73005 9.05464C4.78757 9.23313 4.85929 9.40524 4.94389 9.56963C5.0927 9.85881 5.28134 10.1241 5.50257 10.3583C5.54811 10.4065 5.59503 10.4534 5.64327 10.4989C5.87487 10.7174 6.13684 10.9041 6.42218 11.0519C6.59089 11.1393 6.76776 11.2131 6.95136 11.2719C7.28183 11.3777 7.63409 11.4348 7.99969 11.4348C8.37205 11.4348 8.73056 11.3756 9.06633 11.266C9.23262 11.2117 9.39334 11.1451 9.54738 11.0672C10.2018 10.7363 10.736 10.2021 11.0669 9.54769C11.1448 9.39364 11.2114 9.23293 11.2657 9.06664C11.3753 8.73087 11.4345 8.37235 11.4345 8C11.4345 7.62765 11.3753 7.26913 11.2657 6.93336C11.2114 6.76706 11.1448 6.60635 11.0669 6.45229C10.736 5.79781 10.2017 5.2636 9.54722 4.93273C9.39322 4.85488 9.23256 4.78828 9.06633 4.73403C8.73056 4.62444 8.37205 4.56519 7.99969 4.56519ZM5.56512 8C5.56512 6.65527 6.65521 5.56519 7.99969 5.56519C8.65268 5.56519 9.24562 5.82223 9.68286 6.24065C10.1013 6.67789 10.4345 7.34701 10.4345 8C10.4345 8.65299 10.1775 9.24593 9.75904 9.68317C9.3218 10.1016 8.65268 10.4348 7.99969 10.4348C6.65521 10.4348 5.56512 9.34473 5.56512 8Z" fill="currentColor" fill-rule="evenodd" />
</svg>
