<svg viewBox="0 0 16 16" xmlns="http://www.w3.org/2000/svg" xmlns:xlink="http://www.w3.org/1999/xlink" width="16.000000" height="16.000000" fill="none">
	<rect id="等待" width="16.000000" height="16.000000" x="0.000000" y="0.000000" />
	<g id="ic_digital_office_waite-等候/base/ic_digital_office_waite">
		<path id="path1" d="M1.90773 7.99503C1.90773 7.04303 1.9044 6.09103 1.90773 5.13903C1.90582 4.67836 1.96244 4.21931 2.07624 3.77291C2.32566 2.82805 2.94113 2.26732 3.88504 2.04979C4.35833 1.94753 4.84174 1.89962 5.32589 1.90699C7.15151 1.90699 8.97729 1.90699 10.8032 1.90699C11.2644 1.90412 11.7242 1.95686 12.1727 2.06407C13.1452 2.30207 13.7287 2.91801 13.951 3.88715C14.051 4.34518 14.0987 4.81305 14.0933 5.28183C14.0933 7.12713 14.0933 8.97258 14.0933 10.8182C14.0958 11.2749 14.0433 11.7302 13.9367 12.1743C13.6987 13.1473 13.0799 13.728 12.1108 13.9503C11.6375 14.0521 11.1541 14.1001 10.6699 14.0931C8.85194 14.0931 7.0341 14.0931 5.21641 14.0931C4.75175 14.0969 4.28831 14.0449 3.83601 13.9384C2.85926 13.7004 2.27282 13.0816 2.05101 12.1077C1.93772 11.6126 1.90773 11.1162 1.90773 10.6154C1.90773 9.74211 1.90773 8.86865 1.90773 7.99503Z" fill="rgb(255,255,255)" fill-opacity="0" fill-rule="nonzero" />
		<path id="path1" d="M1.90773 5.13903C1.90582 4.67836 1.96244 4.21931 2.07624 3.77291C2.32566 2.82805 2.94113 2.26732 3.88504 2.04979C4.35833 1.94753 4.84174 1.89962 5.32589 1.90699C7.15151 1.90699 8.97729 1.90699 10.8032 1.90699C11.2644 1.90412 11.7242 1.95686 12.1727 2.06407C13.1452 2.30207 13.7287 2.91801 13.951 3.88715C14.051 4.34518 14.0987 4.81305 14.0933 5.28183C14.0933 7.12713 14.0933 8.97258 14.0933 10.8182C14.0958 11.2749 14.0433 11.7302 13.9367 12.1743C13.6987 13.1473 13.0799 13.728 12.1108 13.9503C11.6375 14.0521 11.1541 14.1001 10.6699 14.0931C8.85194 14.0931 7.0341 14.0931 5.21641 14.0931C4.75175 14.0969 4.28831 14.0449 3.83601 13.9384C2.85926 13.7004 2.27282 13.0816 2.05101 12.1077C1.93772 11.6126 1.90773 11.1162 1.90773 10.6154C1.90773 9.74211 1.90773 8.86865 1.90773 7.99503C1.90773 7.04303 1.9044 6.09103 1.90773 5.13903Z" fill-rule="nonzero" stroke="rgb(255,255,255)" stroke-opacity="0" stroke-width="0.720417" />
		<path id="path2" d="M1.90773 5.13903C1.90582 4.67836 1.96244 4.21931 2.07624 3.77291C2.32566 2.82805 2.94113 2.26732 3.88504 2.04979C4.35833 1.94753 4.84174 1.89962 5.32589 1.90699C7.15151 1.90699 8.97729 1.90699 10.8032 1.90699C11.2644 1.90412 11.7242 1.95686 12.1727 2.06407C13.1452 2.30207 13.7287 2.91801 13.951 3.88715C14.051 4.34518 14.0987 4.81305 14.0933 5.28183C14.0933 7.12713 14.0933 8.97258 14.0933 10.8182C14.0958 11.2749 14.0433 11.7302 13.9367 12.1743C13.6987 13.1473 13.0799 13.728 12.1108 13.9503C11.6375 14.0521 11.1541 14.1001 10.6699 14.0931C8.85194 14.0931 7.0341 14.0931 5.21641 14.0931C4.75175 14.0969 4.28831 14.0449 3.83601 13.9384C2.85926 13.7004 2.27282 13.0816 2.05101 12.1077C1.93772 11.6126 1.90773 11.1162 1.90773 10.6154C1.90773 9.74211 1.90773 8.86865 1.90773 7.99503C1.90773 7.04303 1.9044 6.09103 1.90773 5.13903Z" opacity="0.200000003" fill-rule="nonzero" stroke="rgb(255,255,255)" stroke-opacity="0" stroke-width="0.720417" />
		<circle id="path3" cx="8" cy="8" r="6.5" fill="rgb(255,255,255)" fill-opacity="0" />
		<path id="path4" d="M11.0139 6.42773C11.4462 6.74293 11.7015 7.25389 11.7015 8.07533C11.7015 8.20876 11.6969 8.34354 11.6876 8.47917C11.8648 8.39966 12.0617 8.35572 12.269 8.35572C13.0525 8.35572 13.6876 8.9834 13.6876 9.75769C13.6876 10.532 13.0525 11.1596 12.269 11.1596C11.8251 11.1596 11.354 11.0864 11.0554 10.8434C10.2854 12.4225 8.83306 13.6832 6.73624 13.6832C3.47334 13.6832 2.05469 10.9109 2.05469 8.35572C2.05469 7.34982 2.36554 6.76606 2.90025 6.42795L11.0139 6.42773Z" fill="rgb(255,255,255)" fill-opacity="0" fill-rule="nonzero" />
		<path id="path4" d="M11.7015 8.07533C11.7015 8.20876 11.6969 8.34354 11.6876 8.47917C11.8648 8.39966 12.0617 8.35572 12.269 8.35572C13.0525 8.35572 13.6876 8.9834 13.6876 9.75769C13.6876 10.532 13.0525 11.1596 12.269 11.1596C11.8251 11.1596 11.354 11.0864 11.0554 10.8434C10.2854 12.4225 8.83306 13.6832 6.73624 13.6832C3.47334 13.6832 2.05469 10.9109 2.05469 8.35572C2.05469 7.34982 2.36554 6.76606 2.90025 6.42795L11.0139 6.42773C11.4462 6.74293 11.7015 7.25389 11.7015 8.07533Z" fill-rule="nonzero" stroke="rgb(20,118,255)" stroke-linejoin="round" stroke-width="0.720417" />
		<line id="path5" x1="1.90625" x2="13.8229179" y1="13.6835938" y2="13.6835938" stroke="rgb(20,118,255)" stroke-linecap="round" stroke-linejoin="round" stroke-width="0.720417" />
		<path id="path6" d="M4.70462 2.44727C4.1434 2.80838 3.95632 3.16949 4.1434 3.5306C4.42401 4.07227 4.87778 4.1991 4.98523 4.61393C5.05687 4.89049 4.86979 5.16132 4.42401 5.42643M7.23013 2.44727C6.66891 2.80838 6.48183 3.16949 6.66891 3.5306C6.94952 4.07227 7.40329 4.1991 7.51075 4.61393C7.58238 4.89049 7.39531 5.16132 6.94952 5.42643M9.46525 2.44727C8.90403 2.80838 8.71695 3.16949 8.90403 3.5306C9.18464 4.07227 9.63841 4.1991 9.74587 4.61393C9.8175 4.89049 9.63043 5.16132 9.18464 5.42643" fill-rule="evenodd" stroke="rgb(20,118,255)" stroke-linecap="round" stroke-linejoin="round" stroke-width="0.720417" />
		<path id="path7" d="M13.8226 13.5469C13.8974 13.5469 13.958 13.6075 13.958 13.6823C13.958 13.7488 13.9101 13.8041 13.8469 13.8155L13.8226 13.8177L1.90592 13.8177C1.83114 13.8177 1.77051 13.7571 1.77051 13.6823C1.77051 13.6158 1.81841 13.5605 1.88158 13.5491L1.90592 13.5469L13.8226 13.5469Z" fill="rgb(255,255,255)" fill-opacity="0" fill-rule="nonzero" />
		<path id="path7" d="M13.958 13.6823C13.958 13.7488 13.9101 13.8041 13.8469 13.8155L13.8226 13.8177L1.90592 13.8177C1.83114 13.8177 1.77051 13.7571 1.77051 13.6823C1.77051 13.6158 1.81841 13.5605 1.88158 13.5491L1.90592 13.5469L13.8226 13.5469C13.8974 13.5469 13.958 13.6075 13.958 13.6823Z" fill-rule="nonzero" stroke="rgb(255,255,255)" stroke-opacity="0" stroke-width="0.720417" />
		<path id="path8" d="M4.63143 2.33405C4.69433 2.29359 4.77812 2.31176 4.81859 2.37466C4.85905 2.43755 4.84087 2.52134 4.77798 2.56181C4.26831 2.88975 4.11598 3.18379 4.26372 3.46898C4.34016 3.61653 4.43316 3.73796 4.55901 3.86562L4.66992 3.97275L4.80911 4.10446C4.97697 4.26833 5.07011 4.40188 5.11641 4.58064C5.20684 4.92978 4.98484 5.25117 4.49331 5.54349C4.42903 5.58172 4.34593 5.5606 4.3077 5.49632C4.26948 5.43204 4.2906 5.34894 4.35488 5.31071C4.75492 5.07281 4.90706 4.85254 4.85423 4.64856C4.82623 4.54047 4.77011 4.45244 4.66266 4.34116L4.60423 4.28334L4.38291 4.07249C4.37657 4.06624 4.37092 4.06061 4.36614 4.05575C4.22253 3.91008 4.1134 3.76759 4.02324 3.59356C3.79683 3.15652 4.01865 2.72834 4.63143 2.33405ZM7.15694 2.33405C7.21984 2.29359 7.30363 2.31176 7.3441 2.37466C7.38457 2.43755 7.36639 2.52134 7.30349 2.56181C6.79382 2.88975 6.64149 3.18379 6.78923 3.46898C6.86568 3.61653 6.95868 3.73796 7.08452 3.86562L7.19543 3.97275L7.33462 4.10446C7.50249 4.26833 7.59562 4.40188 7.64192 4.58064C7.73236 4.92978 7.51036 5.25117 7.01882 5.54349C6.95454 5.58172 6.87144 5.5606 6.83322 5.49632C6.79499 5.43204 6.81611 5.34894 6.88039 5.31071C7.28043 5.07281 7.43258 4.85254 7.37974 4.64856C7.35174 4.54047 7.29562 4.45244 7.18817 4.34116L7.12974 4.28334L6.90842 4.07249C6.90208 4.06624 6.89644 4.06061 6.89165 4.05575C6.74804 3.91008 6.63891 3.76759 6.54875 3.59356C6.32234 3.15652 6.54417 2.72834 7.15694 2.33405ZM9.39207 2.33405C9.45496 2.29359 9.53875 2.31176 9.57922 2.37466C9.61969 2.43755 9.60151 2.52134 9.53861 2.56181C9.02894 2.88975 8.87661 3.18379 9.02435 3.46898C9.08988 3.59545 9.16756 3.70273 9.26767 3.8112L9.33529 3.88121L9.56974 4.10446C9.73761 4.26833 9.83074 4.40188 9.87704 4.58064C9.96748 4.92978 9.74548 5.25117 9.25394 5.54349C9.18966 5.58172 9.10656 5.5606 9.06834 5.49632C9.03011 5.43204 9.05123 5.34894 9.11551 5.31071C9.51555 5.07281 9.6677 4.85254 9.61486 4.64856C9.58687 4.54047 9.53074 4.45244 9.42329 4.34116L9.37355 4.29157L9.14355 4.07249C9.1372 4.06624 9.13156 4.06061 9.12677 4.05575C8.98316 3.91008 8.87403 3.76759 8.78387 3.59356C8.55747 3.15652 8.77929 2.72834 9.39207 2.33405Z" fill="rgb(255,255,255)" fill-opacity="0" fill-rule="nonzero" />
		<path id="path8" d="M4.81859 2.37466C4.85905 2.43755 4.84087 2.52134 4.77798 2.56181C4.26831 2.88975 4.11598 3.18379 4.26372 3.46898C4.34016 3.61653 4.43316 3.73796 4.55901 3.86562L4.66992 3.97275L4.80911 4.10446C4.97697 4.26833 5.07011 4.40188 5.11641 4.58064C5.20684 4.92978 4.98484 5.25117 4.49331 5.54349C4.42903 5.58172 4.34593 5.5606 4.3077 5.49632C4.26948 5.43204 4.2906 5.34894 4.35488 5.31071C4.75492 5.07281 4.90706 4.85254 4.85423 4.64856C4.82623 4.54047 4.77011 4.45244 4.66266 4.34116L4.60423 4.28334L4.38291 4.07249C4.37657 4.06624 4.37092 4.06061 4.36614 4.05575C4.22253 3.91008 4.1134 3.76759 4.02324 3.59356C3.79683 3.15652 4.01865 2.72834 4.63143 2.33405C4.69433 2.29359 4.77812 2.31176 4.81859 2.37466ZM7.3441 2.37466C7.38457 2.43755 7.36639 2.52134 7.30349 2.56181C6.79382 2.88975 6.64149 3.18379 6.78923 3.46898C6.86568 3.61653 6.95868 3.73796 7.08452 3.86562L7.19543 3.97275L7.33462 4.10446C7.50249 4.26833 7.59562 4.40188 7.64192 4.58064C7.73236 4.92978 7.51036 5.25117 7.01882 5.54349C6.95454 5.58172 6.87144 5.5606 6.83322 5.49632C6.79499 5.43204 6.81611 5.34894 6.88039 5.31071C7.28043 5.07281 7.43258 4.85254 7.37974 4.64856C7.35174 4.54047 7.29562 4.45244 7.18817 4.34116L7.12974 4.28334L6.90842 4.07249C6.90208 4.06624 6.89644 4.06061 6.89165 4.05575C6.74804 3.91008 6.63891 3.76759 6.54875 3.59356C6.32234 3.15652 6.54417 2.72834 7.15694 2.33405C7.21984 2.29359 7.30363 2.31176 7.3441 2.37466ZM9.57922 2.37466C9.61969 2.43755 9.60151 2.52134 9.53861 2.56181C9.02894 2.88975 8.87661 3.18379 9.02435 3.46898C9.08988 3.59545 9.16756 3.70273 9.26767 3.8112L9.33529 3.88121L9.56974 4.10446C9.73761 4.26833 9.83074 4.40188 9.87704 4.58064C9.96748 4.92978 9.74548 5.25117 9.25394 5.54349C9.18966 5.58172 9.10656 5.5606 9.06834 5.49632C9.03011 5.43204 9.05123 5.34894 9.11551 5.31071C9.51555 5.07281 9.6677 4.85254 9.61486 4.64856C9.58687 4.54047 9.53074 4.45244 9.42329 4.34116L9.37355 4.29157L9.14355 4.07249C9.1372 4.06624 9.13156 4.06061 9.12677 4.05575C8.98316 3.91008 8.87403 3.76759 8.78387 3.59356C8.55747 3.15652 8.77929 2.72834 9.39207 2.33405C9.45496 2.29359 9.53875 2.31176 9.57922 2.37466Z" fill-rule="nonzero" stroke="rgb(255,255,255)" stroke-opacity="0" stroke-width="0.720417" />
	</g>
</svg>
