<svg viewBox="0 0 16 16" xmlns="http://www.w3.org/2000/svg" xmlns:xlink="http://www.w3.org/1999/xlink" width="16.000000" height="16.000000" fill="none">
	<rect id="正在进行" width="16.000000" height="16.000000" x="0.000000" y="0.000000" />
	<g id="ic_gts_loading-加载/base/ic_gts_loading">
		<path id="path1" d="M0.501823 7.99389C0.501823 6.8222 0.497722 5.6505 0.501823 4.47881C0.499465 3.91183 0.569153 3.34684 0.709212 2.79743C1.0162 1.63452 1.7737 0.944393 2.93543 0.676661C3.51794 0.550805 4.11291 0.491839 4.70879 0.500907C6.95571 0.500907 9.20282 0.500907 11.4501 0.500907C12.0177 0.497384 12.5836 0.562295 13.1356 0.694236C14.3325 0.98716 15.0507 1.74525 15.3243 2.93803C15.4473 3.50176 15.5061 4.07761 15.4995 4.65456C15.4995 6.9257 15.4995 9.19703 15.4995 11.4686C15.5026 12.0306 15.4379 12.591 15.3068 13.1376C15.0138 14.3351 14.2522 15.0498 13.0594 15.3234C12.4769 15.4488 11.882 15.5078 11.2861 15.4992C9.04855 15.4992 6.8112 15.4992 4.57404 15.4992C4.00215 15.5038 3.43176 15.4399 2.87509 15.3088C1.67293 15.0159 0.951167 14.2543 0.678163 13.0556C0.538731 12.4463 0.501823 11.8353 0.501823 11.219C0.501823 10.1441 0.501823 9.06912 0.501823 7.99389Z" fill="rgb(255,255,255)" fill-opacity="0" fill-rule="nonzero" />
		<path id="path1" d="M0.501823 4.47881C0.499465 3.91183 0.569153 3.34684 0.709212 2.79743C1.0162 1.63452 1.7737 0.944393 2.93543 0.676661C3.51794 0.550805 4.11291 0.491839 4.70879 0.500907C6.95571 0.500907 9.20282 0.500907 11.4501 0.500907C12.0177 0.497384 12.5836 0.562295 13.1356 0.694236C14.3325 0.98716 15.0507 1.74525 15.3243 2.93803C15.4473 3.50176 15.5061 4.07761 15.4995 4.65456C15.4995 6.9257 15.4995 9.19703 15.4995 11.4686C15.5026 12.0306 15.4379 12.591 15.3068 13.1376C15.0138 14.3351 14.2522 15.0498 13.0594 15.3234C12.4769 15.4488 11.882 15.5078 11.2861 15.4992C9.04855 15.4992 6.8112 15.4992 4.57404 15.4992C4.00215 15.5038 3.43176 15.4399 2.87509 15.3088C1.67293 15.0159 0.951167 14.2543 0.678163 13.0556C0.538731 12.4463 0.501823 11.8353 0.501823 11.219C0.501823 10.1441 0.501823 9.06912 0.501823 7.99389C0.501823 6.8222 0.497722 5.6505 0.501823 4.47881Z" fill-rule="nonzero" stroke="rgb(255,255,255)" stroke-opacity="0" stroke-width="0.888889" />
		<path id="path2" d="M0.501823 4.47881C0.499465 3.91183 0.569153 3.34684 0.709212 2.79743C1.0162 1.63452 1.7737 0.944393 2.93543 0.676661C3.51794 0.550805 4.11291 0.491839 4.70879 0.500907C6.95571 0.500907 9.20282 0.500907 11.4501 0.500907C12.0177 0.497384 12.5836 0.562295 13.1356 0.694236C14.3325 0.98716 15.0507 1.74525 15.3243 2.93803C15.4473 3.50176 15.5061 4.07761 15.4995 4.65456C15.4995 6.9257 15.4995 9.19703 15.4995 11.4686C15.5026 12.0306 15.4379 12.591 15.3068 13.1376C15.0138 14.3351 14.2522 15.0498 13.0594 15.3234C12.4769 15.4488 11.882 15.5078 11.2861 15.4992C9.04855 15.4992 6.8112 15.4992 4.57404 15.4992C4.00215 15.5038 3.43176 15.4399 2.87509 15.3088C1.67293 15.0159 0.951167 14.2543 0.678163 13.0556C0.538731 12.4463 0.501823 11.8353 0.501823 11.219C0.501823 10.1441 0.501823 9.06912 0.501823 7.99389C0.501823 6.8222 0.497722 5.6505 0.501823 4.47881Z" opacity="0.200000003" fill-rule="nonzero" stroke="rgb(255,255,255)" stroke-opacity="0" stroke-width="0.888889" />
		<circle id="path3" cx="8" cy="8" r="8" fill="rgb(255,255,255)" fill-opacity="0" />
		<path id="path4" d="M12 8L15 8M1 8L4 8M8 12L8 15M8 1L8 4M5.17157 10.8284L3.05025 12.9497M12.9497 3.05025L10.8284 5.17157M5.17157 5.17157L3.05025 3.05025M12.9497 12.9497L10.8284 10.8284" stroke="rgb(0,102,255)" stroke-linecap="round" stroke-linejoin="round" stroke-width="0.888889" />
		<path id="path5" d="M8.00033 11.667C8.18442 11.667 8.33366 11.8162 8.33366 12.0003L8.33366 15.0003C8.33366 15.1844 8.18442 15.3337 8.00033 15.3337C7.81623 15.3337 7.66699 15.1844 7.66699 15.0003L7.66699 12.0003C7.66699 11.8162 7.81623 11.667 8.00033 11.667ZM4.9362 10.5931C5.06637 10.4629 5.27743 10.4629 5.4076 10.5931C5.53778 10.7232 5.53778 10.9343 5.4076 11.0645L3.28628 13.1858C3.15611 13.3159 2.94505 13.3159 2.81488 13.1858C2.6847 13.0556 2.6847 12.8445 2.81488 12.7144L4.9362 10.5931ZM10.5931 10.5931C10.7232 10.4629 10.9343 10.4629 11.0645 10.5931L13.1858 12.7144C13.3159 12.8445 13.3159 13.0556 13.1858 13.1858C13.0556 13.3159 12.8445 13.3159 12.7144 13.1858L10.5931 11.0645C10.4629 10.9343 10.4629 10.7232 10.5931 10.5931ZM15.0003 7.66699C15.1844 7.66699 15.3337 7.81623 15.3337 8.00033C15.3337 8.18442 15.1844 8.33366 15.0003 8.33366L12.0003 8.33366C11.8162 8.33366 11.667 8.18442 11.667 8.00033C11.667 7.81623 11.8162 7.66699 12.0003 7.66699L15.0003 7.66699ZM4.00033 7.66699C4.18442 7.66699 4.33366 7.81623 4.33366 8.00033C4.33366 8.18442 4.18442 8.33366 4.00033 8.33366L1.00033 8.33366C0.816231 8.33366 0.666992 8.18442 0.666992 8.00033C0.666992 7.81623 0.816231 7.66699 1.00033 7.66699L4.00033 7.66699ZM12.7144 2.81488C12.8445 2.6847 13.0556 2.6847 13.1858 2.81488C13.3159 2.94505 13.3159 3.15611 13.1858 3.28628L11.0645 5.4076C10.9343 5.53778 10.7232 5.53778 10.5931 5.4076C10.4629 5.27743 10.4629 5.06637 10.5931 4.9362L12.7144 2.81488ZM2.81488 2.81488C2.94505 2.6847 3.15611 2.6847 3.28628 2.81488L5.4076 4.9362C5.53778 5.06637 5.53778 5.27743 5.4076 5.4076C5.27743 5.53778 5.06637 5.53778 4.9362 5.4076L2.81488 3.28628C2.6847 3.15611 2.6847 2.94505 2.81488 2.81488ZM8.00033 0.666992C8.18442 0.666992 8.33366 0.816231 8.33366 1.00033L8.33366 4.00033C8.33366 4.18442 8.18442 4.33366 8.00033 4.33366C7.81623 4.33366 7.66699 4.18442 7.66699 4.00033L7.66699 1.00033C7.66699 0.816231 7.81623 0.666992 8.00033 0.666992Z" fill="rgb(255,255,255)" fill-opacity="0" fill-rule="nonzero" />
		<path id="path5" d="M8.33366 12.0003L8.33366 15.0003C8.33366 15.1844 8.18442 15.3337 8.00033 15.3337C7.81623 15.3337 7.66699 15.1844 7.66699 15.0003L7.66699 12.0003C7.66699 11.8162 7.81623 11.667 8.00033 11.667C8.18442 11.667 8.33366 11.8162 8.33366 12.0003ZM5.4076 10.5931C5.53778 10.7232 5.53778 10.9343 5.4076 11.0645L3.28628 13.1858C3.15611 13.3159 2.94505 13.3159 2.81488 13.1858C2.6847 13.0556 2.6847 12.8445 2.81488 12.7144L4.9362 10.5931C5.06637 10.4629 5.27743 10.4629 5.4076 10.5931ZM11.0645 10.5931L13.1858 12.7144C13.3159 12.8445 13.3159 13.0556 13.1858 13.1858C13.0556 13.3159 12.8445 13.3159 12.7144 13.1858L10.5931 11.0645C10.4629 10.9343 10.4629 10.7232 10.5931 10.5931C10.7232 10.4629 10.9343 10.4629 11.0645 10.5931ZM15.3337 8.00033C15.3337 8.18442 15.1844 8.33366 15.0003 8.33366L12.0003 8.33366C11.8162 8.33366 11.667 8.18442 11.667 8.00033C11.667 7.81623 11.8162 7.66699 12.0003 7.66699L15.0003 7.66699C15.1844 7.66699 15.3337 7.81623 15.3337 8.00033ZM4.33366 8.00033C4.33366 8.18442 4.18442 8.33366 4.00033 8.33366L1.00033 8.33366C0.816231 8.33366 0.666992 8.18442 0.666992 8.00033C0.666992 7.81623 0.816231 7.66699 1.00033 7.66699L4.00033 7.66699C4.18442 7.66699 4.33366 7.81623 4.33366 8.00033ZM13.1858 2.81488C13.3159 2.94505 13.3159 3.15611 13.1858 3.28628L11.0645 5.4076C10.9343 5.53778 10.7232 5.53778 10.5931 5.4076C10.4629 5.27743 10.4629 5.06637 10.5931 4.9362L12.7144 2.81488C12.8445 2.6847 13.0556 2.6847 13.1858 2.81488ZM3.28628 2.81488L5.4076 4.9362C5.53778 5.06637 5.53778 5.27743 5.4076 5.4076C5.27743 5.53778 5.06637 5.53778 4.9362 5.4076L2.81488 3.28628C2.6847 3.15611 2.6847 2.94505 2.81488 2.81488C2.94505 2.6847 3.15611 2.6847 3.28628 2.81488ZM8.33366 1.00033L8.33366 4.00033C8.33366 4.18442 8.18442 4.33366 8.00033 4.33366C7.81623 4.33366 7.66699 4.18442 7.66699 4.00033L7.66699 1.00033C7.66699 0.816231 7.81623 0.666992 8.00033 0.666992C8.18442 0.666992 8.33366 0.816231 8.33366 1.00033Z" fill-rule="nonzero" stroke="rgb(255,255,255)" stroke-opacity="0" stroke-linejoin="round" stroke-width="0.888889" />
	</g>
</svg>
