<svg viewBox="0 0 16 16" xmlns="http://www.w3.org/2000/svg" xmlns:xlink="http://www.w3.org/1999/xlink" width="16.000000" height="16.000000" fill="none" customFrame="#000000">
	<rect id="Team 成员" width="15.999999" height="16.000000" x="0.000000" y="0.000000" fill="rgb(255,255,255)" fill-opacity="0" />
	<path id="形状结合" d="M10.9616 3.51525C10.4706 2.31396 9.33273 1.59961 7.99654 1.59961C6.09201 1.59961 4.75062 2.95863 4.75062 5.04328C4.75062 6.07292 4.9066 6.93991 5.21941 7.69865C5.30952 7.91999 5.41339 8.13271 5.53417 8.34466C5.58594 8.4355 5.63958 8.52425 5.69924 8.61796L5.81456 8.7942L5.94276 8.98361L5.83177 9.03517L5.19358 9.31774C4.14526 9.81727 3.22433 10.5689 2.52339 11.4716C2.23398 11.8411 2.06676 12.2316 2.06676 12.6375C2.06676 13.6063 2.86623 14.3996 3.84662 14.3996L12.1536 14.3996L12.2683 14.3959L12.3792 14.3853C13.2581 14.2735 13.9334 13.5259 13.9334 12.6375C13.9334 12.2707 13.7787 11.8469 13.5832 11.5946C12.8425 10.5791 11.7856 9.71984 10.5793 9.1959L10.0983 8.9846L10.0728 8.97161L10.22 8.75231L10.3338 8.57391C10.9936 7.51025 11.249 6.55559 11.249 5.06304C11.249 4.48984 11.1525 3.97176 10.9616 3.51525ZM7.99654 2.77881C6.75243 2.77881 5.95062 3.61534 5.95062 5.04328C5.95062 5.9224 6.07776 6.64015 6.33257 7.25824C6.40401 7.4337 6.4855 7.60058 6.58119 7.76851C6.62293 7.84176 6.66669 7.91419 6.71651 7.99244L6.86542 8.21782L7.00744 8.42841L7.06313 8.51751C7.38704 9.07177 7.26195 9.57898 6.71604 9.91194L6.65229 9.9493L6.58288 9.98698L6.50832 10.0248L6.22023 10.1565L6.10066 10.2086L5.7092 10.3826C4.83573 10.8005 4.06202 11.434 3.47589 12.1888C3.36664 12.3283 3.26676 12.5367 3.26676 12.6375C3.26676 12.9066 3.45572 13.1401 3.70623 13.2032L3.77599 13.2161L3.84662 13.2204L12.1536 13.2204C12.4696 13.2204 12.7334 12.9559 12.7334 12.6375C12.7334 12.5431 12.6632 12.3539 12.6183 12.2954C11.9922 11.4374 11.1014 10.712 10.0941 10.2744L9.4966 10.0097C9.44136 9.98304 9.40451 9.96298 9.3654 9.93986L9.28447 9.89051L9.20574 9.83844C8.85742 9.59224 8.70558 9.25946 8.78525 8.88389L8.81001 8.78913L8.84437 8.69377L8.85593 8.66653L8.87408 8.6294L8.89728 8.58868L9.20171 8.12822C9.8278 7.17546 10.049 6.41052 10.049 5.06303C10.049 4.64187 9.982 4.27514 9.84984 3.95917C9.54427 3.21152 8.84921 2.77881 7.99654 2.77881ZM3.52342 3.91409C3.80171 3.75226 4.15868 3.84634 4.32077 4.12427C4.4557 4.35564 4.41376 4.64458 4.22782 4.83011L4.16775 4.88251L4.11029 4.92072C3.87195 5.05932 3.69675 5.26372 3.58604 5.53916C3.50068 5.7482 3.45649 5.99641 3.45649 6.27393C3.45649 6.91984 3.55586 7.4228 3.75985 7.85921L3.83173 8.00231L3.89392 8.11285L3.96246 8.22376L4.14452 8.49962C4.32329 8.77768 4.23486 9.14841 3.94978 9.31612L3.90355 9.34217L3.79113 9.39871L3.47627 9.53991C2.8156 9.83226 2.26276 10.2939 1.86304 10.851C1.81036 10.9285 1.76641 11.0481 1.76641 11.13C1.76641 11.1649 1.77025 11.1991 1.77741 11.2312L1.7906 11.2776L1.81144 11.3278C1.9519 11.6173 1.83073 11.9657 1.54086 12.1059C1.25105 12.2461 0.902279 12.1252 0.761846 11.8357C0.655386 11.6163 0.600098 11.3759 0.600098 11.13C0.600098 10.7872 0.710093 10.4731 0.906549 10.1846C1.35317 9.56175 1.93031 9.04061 2.62144 8.66348L2.81076 8.56428L2.80493 8.55473C2.54637 8.0741 2.38658 7.5448 2.32247 6.92713L2.30291 6.69128L2.29294 6.47154L2.29017 6.27393C2.29017 5.84719 2.36253 5.45081 2.50488 5.10227C2.71157 4.58795 3.06151 4.1827 3.52342 3.91409ZM11.6794 4.12427C11.8415 3.84634 12.1985 3.75226 12.4768 3.91409C12.9387 4.1827 13.2886 4.58795 13.4952 5.10192C13.597 5.35117 13.663 5.62478 13.6925 5.91755L13.7057 6.09546L13.71 6.27486L13.7072 6.4725C13.6883 7.13636 13.5736 7.70224 13.36 8.21005L13.2753 8.39783L13.1888 8.56494L13.3966 8.6732C13.9429 8.97404 14.4178 9.36558 14.8131 9.82705L14.9576 10.0033L15.0946 10.1859C15.2901 10.4731 15.4001 10.7872 15.4001 11.13C15.4001 11.3759 15.3448 11.6163 15.2383 11.8357C15.0979 12.1252 14.7491 12.2461 14.4593 12.1059C14.2179 11.9892 14.091 11.7256 14.1422 11.4672L14.1606 11.3969L14.2082 11.2811C14.2252 11.2331 14.2338 11.1824 14.2338 11.13C14.2338 11.0481 14.1898 10.9285 14.1381 10.8524C13.8171 10.4049 13.397 10.0182 12.9026 9.73242L12.7139 9.63005L12.5236 9.53977L12.2077 9.39809C12.1439 9.36776 12.0945 9.34204 12.0504 9.31612C11.8131 9.17651 11.7095 8.89335 11.7916 8.63607L11.8186 8.56667L11.8561 8.49894L12.037 8.22493L12.1056 8.11406L12.1679 8.00342C12.421 7.53281 12.5437 6.99161 12.5437 6.27393C12.5437 5.99641 12.4995 5.7482 12.414 5.53882C12.3332 5.33764 12.2177 5.17433 12.0698 5.04778L11.9771 4.97626L11.8864 4.91854L11.8291 4.88009C11.5966 4.70295 11.531 4.37877 11.6794 4.12427Z" fill="rgb(25,25,25)" fill-rule="evenodd" />
</svg>
